<?xml version="1.0" standalone="no"?>
<!DOCTYPE svg PUBLIC "-//W3C//DTD SVG 20010904//EN"
 "http://www.w3.org/TR/2001/REC-SVG-20010904/DTD/svg10.dtd">
<svg version="1.0" xmlns="http://www.w3.org/2000/svg"
 width="348.000000pt" height="174.000000pt" viewBox="0 0 348.000000 174.000000"
 preserveAspectRatio="xMidYMid meet">

<g transform="translate(0.000000,174.000000) scale(0.100000,-0.100000)"
fill="#000000" stroke="none">
<path d="M1881 1719 c-108 -8 -116 -10 -145 -38 -51 -49 -87 -128 -82 -180 3
-34 0 -44 -13 -48 -21 -5 -53 -60 -40 -68 5 -4 9 -15 9 -25 0 -39 71 -53 116
-23 21 13 25 22 20 45 -3 15 -15 41 -27 57 -20 27 -21 34 -10 76 17 68 56 124
99 142 45 20 176 20 230 1 55 -19 68 -35 102 -126 15 -37 8 -136 -10 -158 -7
-7 -10 -21 -6 -29 3 -8 0 -15 -6 -15 -7 0 -23 -11 -37 -24 -28 -25 -80 -44
-203 -71 -43 -10 -78 -21 -78 -25 0 -5 -10 -10 -22 -12 -16 -2 -24 -11 -26
-28 -2 -19 -14 -31 -45 -45 -54 -26 -57 -57 -12 -100 26 -25 30 -35 24 -53 -5
-12 -12 -22 -16 -22 -5 0 -14 -14 -20 -30 -7 -19 -18 -30 -30 -30 -20 0 -63
-42 -63 -60 0 -6 -11 -10 -24 -10 -26 0 -160 -63 -171 -80 -3 -5 -16 -10 -28
-10 -12 -1 -60 -14 -107 -30 -47 -17 -94 -30 -105 -30 -24 0 -273 -68 -297
-81 -10 -5 -31 -9 -48 -9 -16 0 -30 -4 -30 -8 0 -4 -30 -13 -67 -19 -150 -26
-256 -52 -263 -63 -4 -7 -12 -10 -18 -6 -5 3 -47 -6 -93 -19 -45 -14 -105 -25
-133 -25 -49 -1 -53 -3 -91 -51 -22 -27 -39 -54 -37 -60 2 -7 -4 -9 -15 -5
-14 6 -15 4 -6 -4 8 -9 7 -17 -5 -31 -10 -11 -16 -23 -14 -26 2 -4 -4 -10 -14
-13 -15 -6 -13 -10 12 -34 50 -47 78 -56 192 -62 117 -5 248 -20 265 -31 14
-8 525 -17 840 -14 161 2 232 -1 242 -9 8 -6 24 -9 35 -5 16 5 20 14 18 33 -3
24 -8 28 -53 34 -81 11 -291 9 -322 -3 -18 -8 -102 -11 -233 -11 -357 1 -433
3 -505 17 -38 8 -122 17 -185 20 -118 6 -239 31 -247 52 -9 22 37 92 79 121
49 33 113 59 172 72 23 4 52 11 66 15 14 4 39 9 55 12 17 3 35 10 41 15 12 9
110 33 194 48 25 4 81 17 125 28 262 68 326 84 385 97 114 25 133 31 230 74
129 58 207 98 254 132 28 20 52 29 78 29 22 0 53 7 69 16 28 14 37 14 117 -6
47 -12 98 -28 112 -35 29 -16 126 -56 220 -91 36 -13 90 -35 120 -48 30 -14
75 -33 100 -44 25 -11 81 -29 125 -42 44 -12 100 -30 125 -40 25 -9 97 -34
160 -54 63 -21 126 -43 140 -50 14 -8 50 -21 80 -30 30 -10 64 -22 75 -26 11
-5 42 -17 68 -25 99 -33 137 -54 148 -81 13 -35 2 -84 -19 -90 -18 -6 -76 -30
-104 -45 -10 -5 -26 -9 -36 -9 -10 0 -22 -3 -26 -7 -4 -4 -22 -8 -39 -9 -18 0
-124 -4 -237 -9 -260 -11 -236 -11 -495 1 -121 5 -282 9 -358 9 -75 0 -137 1
-137 1 0 1 7 18 15 37 18 44 20 108 3 125 -25 25 -54 11 -118 -53 -35 -36 -68
-65 -73 -65 -4 0 -15 17 -23 37 -23 55 -62 103 -84 103 -29 0 -40 -31 -40
-112 0 -72 23 -143 62 -188 20 -25 61 -50 79 -50 9 0 47 29 84 65 45 44 71 63
79 57 31 -25 559 -39 741 -20 50 5 158 11 240 13 191 5 249 10 357 29 101 17
132 34 159 87 52 102 -9 185 -151 204 -30 4 -106 30 -167 56 -62 27 -141 56
-175 65 -35 9 -67 19 -73 23 -14 10 -55 25 -160 57 -114 34 -307 109 -362 141
-23 14 -46 22 -51 19 -5 -3 -43 12 -84 33 -41 21 -104 48 -141 60 -36 12 -83
34 -103 47 -20 14 -59 36 -86 49 -49 23 -98 63 -98 78 0 5 12 6 28 3 16 -4 35
-1 46 7 17 13 17 14 1 30 -9 9 -25 17 -36 17 -28 0 -23 31 8 54 14 10 68 27
120 37 114 23 140 35 184 91 50 61 50 60 58 149 8 73 6 85 -14 127 -25 50
-110 139 -135 140 -8 1 -26 3 -40 5 -14 3 -76 1 -139 -4z m-56 -764 c0 -10 -6
-20 -12 -22 -8 -3 -13 5 -13 22 0 17 5 25 13 23 6 -3 12 -13 12 -23z m-42
-807 c20 -13 47 -9 47 7 0 8 27 43 60 77 59 63 59 63 60 32 0 -40 -44 -106
-114 -173 -56 -52 -57 -53 -78 -35 -11 11 -27 32 -35 49 -17 31 -35 163 -25
179 3 5 20 -21 39 -59 18 -38 39 -73 46 -77z"/>
</g>
</svg>
