<?xml version="1.0" standalone="no"?>
<!DOCTYPE svg PUBLIC "-//W3C//DTD SVG 20010904//EN"
 "http://www.w3.org/TR/2001/REC-SVG-20010904/DTD/svg10.dtd">
<svg version="1.0" xmlns="http://www.w3.org/2000/svg"
 width="38.000000pt" height="36.000000pt" viewBox="0 0 38.000000 36.000000"
 preserveAspectRatio="xMidYMid meet">
<metadata>
Created by potrace 1.16, written by Peter Selinger 2001-2019
</metadata>
<g transform="translate(0.000000,36.000000) scale(0.100000,-0.100000)"
fill="#000000" stroke="none">
<path d="M30 331 c-5 -11 -10 -53 -10 -93 0 -55 6 -85 24 -123 24 -54 86 -115
114 -115 25 0 172 148 193 195 23 49 25 118 4 135 -24 20 -57 4 -120 -60 -33
-33 -64 -60 -68 -60 -4 0 -17 19 -27 43 -39 89 -86 122 -110 78z m124 -183
c19 -13 46 -9 46 6 0 20 110 137 121 130 29 -18 -36 -122 -134 -213 -36 -34
-37 -34 -58 -15 -11 10 -28 32 -36 49 -17 31 -35 163 -26 179 4 5 22 -22 41
-60 19 -38 40 -72 46 -76z"/>
</g>
</svg>
